<?xml version="1.0" encoding="UTF-8"?>
<svg id="Layer_2" xmlns="http://www.w3.org/2000/svg" xmlns:xlink="http://www.w3.org/1999/xlink" version="1.1" viewBox="0 0 307.7 368.6">
  <!-- Generator: Adobe Illustrator 29.1.0, SVG Export Plug-In . SVG Version: 2.1.0 Build 142)  -->
  <defs>
    <style>
      .st0, .st1 {
        fill: none;
      }

      .st2 {
        fill: #fff;
      }

      .st3 {
        opacity: .2;
      }

      .st1 {
        stroke: #66bc46;
        stroke-miterlimit: 10;
        stroke-width: 6px;
      }

      .st4 {
        fill: #d4dc5d;
      }

      .st5 {
        clip-path: url(#clippath);
      }
    </style>
    <clipPath id="clippath">
      <polygon class="st0" points="58.5 125.5 133.8 52.6 163 83.6 158.9 113.8 153.8 113.8 150.7 131.4 174 160.3 227.7 154.8 267.2 189.8 294.4 345.6 285.5 354.2 213.9 325.7 162 325.7 103.2 296.1 69.5 298.5 58.5 125.5"/>
    </clipPath>
  </defs>
  <g id="Layer_1-2">
    <g>
      <polygon class="st4" points="58.5 125.5 133.8 52.6 163 83.6 158.9 113.8 153.8 113.8 150.7 131.4 174 160.3 227.7 154.8 267.2 189.8 294.4 345.6 285.5 354.2 213.9 325.7 162 325.7 103.2 296.1 69.5 298.5 58.5 125.5"/>
      <g class="st5">
        <g class="st3">
          <path class="st2" d="M71.8,72.1c51.2,16.5,106.3,27.1,159.9,16.9l-.4,2.2c-3.1-1.7-6.4-2.9-9.9-3.5-10.7-1.8-21.4,1-31.6,4-13.9,4.4-27.9,8.8-42.2,11.9-26.8,5.9-55.5,8.1-82-.7l-5.3-1.8-3.2-1.1,2.7-2.1c5.5-4.4,12.8-5.7,19.6-5.4,6.7.2,13.1,1.8,19.4,3.2,25.1,5.9,49.6,14.5,75.1,17.4,12.6,1.4,25.4,1.1,37.8-1.6l.2,4.5c-15.2-1.9-30.6-1.7-45.8.7-30.7,4.7-58.9,19-89.3,25.6-11.7,2.4-25.5,5.4-35.8-2.9-.8-.7-1.8-1.6-2.6-2.9-2.4-4.7,1.8-8.7,6.3-9.6,3.9-.8,8-1.2,11.9-1.6,19.4-2.1,39-2.2,58.4-2.2h116.4l-2.6,3.2c-2-6.4-13.1-6.2-18.6-6.3-16,.1-31.5,5.7-45.7,12.8-35.7,18.3-72.1,49.3-115.2,37.6-4.1-1.2-8-2.9-11.8-4.9-2.2-1.3-4.2-2.9-5.2-5.5-2.6-8.1,8.5-11.5,14.1-13.9,7.9-2.9,16.1-4.2,24.3-5.6,11.8-1.8,24.7-3.8,36.5-5.4l97.4-12.9.2,3.4c-9.1-.3-17.2,5.1-24.9,9.6-8,4.8-15.8,9.9-23.5,15.2-22.9,16-44.1,34.6-63.2,55.1-6.5,6.8-13.3,13.9-22.3,17.6-9,3.6-19.3,3.5-28.3,0-13.5-5.5-21.6-15.8-8.8-27.8,12.4-11.4,29.2-15.5,44.9-20,53.9-14.7,111.4-20.2,160.4-48.8l.5,1.8c-19,1-35.6,12-50.7,22.9-28.3,20.8-53,46.6-72.2,76-8.9,13.5-16.6,28.5-28.9,39.6-12.3,11.2-28.9,17.4-45.6,17.2h-1.1l-.3-1.1c-4.6-18.3,7.2-36.3,21.8-46.4,13.9-9.8,31.4-17.1,46.5-25,41.5-20.4,83.8-43.3,126.7-60.5,9.6-3.9,23.1-8.6,32.9-12.2l-.3,4.2c-9.6-5-20.9.9-29.4,6.3-9.4,6-18.3,12.9-26.6,20.6-24.7,22.9-43.7,51.7-57.6,82.4-9.4,20.7-15.7,42.7-26.4,63-5.2,10.8-17.4,24.1-30.2,15.8-8.1-5.9-9.2-17.2-7.3-26.3,5.7-26.6,28.9-44,50.1-58.3,54.4-37,105.1-79.9,152.3-125.8l-15.5,23.1c-55.1,80-92.5,105.5-113.7,207.2l-1,4.1-3.6-2c-10.5-5.6-17.4-16.2-20.1-27.5-5.7-22.6,6.8-45.5,22.5-61,14.6-14.6,32-24.9,47.7-38,17.7-14.6,33.8-31,51.8-45.3,10.6-8.6,22.5-16.1,34.7-22.4-18,40.6-33.4,82.4-45.6,125.1-4.8,16.1-8.2,32.4-14,48.3-3.2,8.8-7.6,17.5-13.1,25.2l-2.1-1.9c-17.6-15.7-31.8-39.7-19.9-63.1,6.3-12.7,17.4-22.1,27.9-31,14.1-11.5,27.3-23.9,39.4-37.4,6.1-6.7,11.8-13.9,18.7-20.2,6.9-6.4,15.2-11.8,24.6-13.4l3.5-.6-1.6,3.2c-23,47.8-40.8,98.1-53.1,149.7l-.4,1.6-1.4-.7c-15.5-7.9-18.3-28.7-12.3-43.5,3.1-7.6,8.3-14,14.1-19.5,5.8-5.5,12.4-10.2,19-14.6l80-52.1.3.5-79.4,52.9c-19.2,12.7-39.6,31-33.7,56.4,1.7,7.4,6.2,14.4,13.1,17.7l-1.8.9c5.9-26,13.3-51.6,22-76.8,8.7-25.2,18.8-49.9,30.2-74l2,2.6c-4.2.8-8.3,2.4-12.1,4.6-11.7,7-19.8,17.9-28.8,28.1-12.2,13.7-25.5,26.4-39.6,38.1-6.9,5.9-13.8,11.8-19.4,18.6-20.7,24.4-9.4,49.2,11.9,68.4l-3.7.4c13.8-20.8,17.4-46.2,24.4-69.8,11.4-40.3,25.4-79.8,41.9-118.2l4.1,3.7c-28.3,15.6-50.3,39.9-74.9,60.6-4.1,3.4-8.5,7.1-12.7,10.2-20.8,15.8-44.8,30.7-55.3,55.4-8.3,18-4.4,43,13.9,53l-4.6,2.1c13-57.2,25.9-89.5,61.2-136.9,17.7-24.2,36.9-47.3,53.6-72.2l4.8,4c-41.5,39.1-86,74.8-133.1,106.9-9.4,6.4-18.6,12.8-26.7,20.4-41.7,38.9-14.2,79.3,5.9,41,10.6-19.9,17.1-42,26.5-62.6,14.3-31.3,33.7-60.5,59.1-83.8,8.4-7.8,17.6-14.9,27.3-21,9.6-6.3,22.9-12.5,34.2-6.4l4.4,2.4-4.7,1.7c-55.1,18.4-107.6,46-159.7,71.6-14.9,7.7-32.5,14.9-46.2,24.5-13.6,9.4-25,25.9-20.8,43l-1.4-1.1c21.8.4,41.9-10.6,54.5-28.1,6.5-8.5,11.9-18,17.9-27.1,18-27.3,40.6-51.5,66.4-71.4,13-9.8,26.5-19.6,42.1-24.9,6.4-2.3,13.3-3.2,20.1-3.4l-3.4,2c-57.4,33.6-126.1,34.8-187.4,57.6-9.3,3.9-30.6,16.2-20.5,27.9,9.5,9.8,25.4,12.4,37.8,7.2,8.6-3.5,15.1-10.4,21.4-17.1,28.7-31,61.9-58.3,99.2-78.3,4.4-2,9.2-3.5,14.3-3.3l.2,3.4c-26.8,3.8-108.3,14.8-133.7,19.1-8,1.3-16,2.7-23.5,5.5-3.5,1.4-7.2,2.9-10.2,5.2-2.8,2.2-.6,4.4,2.1,5.9,14,7.7,30.8,7.9,46.1,4.4,43.9-10.3,77.3-50.8,124.3-51.2,6.7.1,13.6.1,19.4,4,2.2,1.5,4,3.9,4.6,6.5l.8,3.3h-3.4c-17.4,0-101,0-116.4,0-15.5,0-30.9,0-46.4,1-7.6.6-15.2,1.2-22.7,2.5-1.2.3-2.4.7-3,1.6,0,.2,0,.3,0,.5,2.4,3.1,6.6,4.6,10.6,5.2,5.4.8,11.1.1,16.5-.9,17-3,33.4-8.8,49.9-14.4,29.3-10.6,61.1-17.1,92.4-12.6l13.3,1.7-13.1,2.8c-12.9,2.8-26.3,3-39.3,1.5-25.9-3.1-50.4-11.9-75.5-17.9-11.7-2.7-25.3-6.4-35.7,1.2l-.5-3.2c2,.7,5.7,2,7.6,2.6,2.6.6,5.2,1.5,7.8,2.1,37.6,8.3,75.9-2,111.9-13.2,14-4.1,30.1-7.6,43.5,0l2.9,1.6c-27.9,5.4-56.6,5.2-84.7,1.3-27-3.7-53.4-10.8-79.1-19.5l.2-.6h0Z"/>
        </g>
      </g>
      <polygon class="st1" points="58.5 125.5 133.8 52.6 163 83.6 158.9 113.8 153.8 113.8 150.7 131.4 174 160.3 227.7 154.8 267.2 189.8 294.4 345.6 285.5 354.2 213.9 325.7 162 325.7 103.2 296.1 69.5 298.5 58.5 125.5"/>
    </g>
    <rect class="st0" y="0" width="307.7" height="368.6"/>
  </g>
</svg>