<?xml version="1.0" encoding="UTF-8"?>
<svg id="Layer_2" data-name="Layer 2" xmlns="http://www.w3.org/2000/svg" viewBox="0 0 220.81 196.65">
  <defs>
    <style>
      .cls-1 {
        fill: #f3e2be;
      }

      .cls-2 {
        fill: #e584ae;
      }

      .cls-3 {
        fill: #b381b5;
      }

      .cls-4 {
        fill: #4e8e96;
      }

      .cls-5 {
        fill: #d92a2a;
      }

      .cls-6 {
        fill: #eeb60b;
      }

      .cls-7 {
        fill: #3a6b97;
      }

      .cls-8 {
        fill: #fff;
      }

      .cls-9 {
        fill: #3a3b3d;
      }

      .cls-10 {
        fill: #5ca9a9;
      }
    </style>
  </defs>
  <g id="OBJECTS">
    <g>
      <ellipse class="cls-3" cx="107.98" cy="86.34" rx="86.31" ry="86.34"/>
      <ellipse class="cls-9" cx="110.4" cy="184.35" rx="110.4" ry="12.3"/>
      <g>
        <g>
          <g>
            <g>
              <g>
                <g>
                  <rect class="cls-5" x="54.9" y="91.5" width="107.27" height="68.38"/>
                  <g>
                    <rect class="cls-8" x="100.87" y="91.5" width="15.33" height="68.38"/>
                    <rect class="cls-8" x="131.51" y="91.5" width="15.33" height="68.38"/>
                    <rect class="cls-8" x="70.23" y="91.5" width="15.33" height="68.38"/>
                  </g>
                </g>
                <rect class="cls-7" x="43.61" y="91.5" width="129.84" height="12.15" rx="6.07" ry="6.07"/>
              </g>
              <rect class="cls-2" x="70.23" y="113.16" width="76.55" height="21.51"/>
            </g>
            <g>
              <g>
                <g>
                  <rect class="cls-10" x="160.13" y="141.73" width="4.08" height="37.97"/>
                  <rect class="cls-10" x="160.13" y="141.73" width="4.08" height="37.97" transform="translate(1.46 322.87) rotate(-90)"/>
                  <rect class="cls-10" x="160.13" y="141.73" width="4.08" height="37.97" transform="translate(-66.14 161.74) rotate(-45)"/>
                  <rect class="cls-10" x="160.13" y="141.73" width="4.08" height="37.97" transform="translate(163.19 389.01) rotate(-135)"/>
                </g>
                <path class="cls-7" d="M162.17,138.97c-11.79,0-21.34,9.55-21.34,21.34s9.56,21.34,21.34,21.34,21.34-9.56,21.34-21.34-9.56-21.34-21.34-21.34ZM162.17,175.69c-8.5,0-15.39-6.88-15.39-15.38s6.89-15.38,15.39-15.38,15.38,6.88,15.38,15.38-6.89,15.38-15.38,15.38Z"/>
              </g>
              <g>
                <g>
                  <rect class="cls-10" x="52.86" y="141.73" width="4.08" height="37.97"/>
                  <rect class="cls-10" x="52.86" y="141.73" width="4.08" height="37.97" transform="translate(-105.81 215.61) rotate(-90)"/>
                  <rect class="cls-10" x="52.86" y="141.73" width="4.08" height="37.97" transform="translate(-97.56 85.89) rotate(-45)"/>
                  <rect class="cls-10" x="52.86" y="141.73" width="4.08" height="37.97" transform="translate(-19.92 313.17) rotate(-135)"/>
                </g>
                <path class="cls-7" d="M54.9,138.97c-11.79,0-21.34,9.55-21.34,21.34s9.56,21.34,21.34,21.34,21.34-9.56,21.34-21.34-9.56-21.34-21.34-21.34ZM54.9,175.69c-8.5,0-15.39-6.88-15.39-15.38s6.89-15.38,15.39-15.38,15.38,6.88,15.38,15.38-6.89,15.38-15.38,15.38Z"/>
              </g>
            </g>
          </g>
          <g>
            <g>
              <g>
                <rect class="cls-4" x="104.97" y="43.58" width="7.13" height="47.91"/>
                <rect class="cls-7" x="104.97" y="53.17" width="7.13" height="16.8"/>
              </g>
              <g>
                <polygon class="cls-8" points="108.43 9.5 55.09 42.54 55.09 51.53 108.13 51.53 108.73 51.53 161.77 51.53 161.77 42.54 108.43 9.5"/>
                <g>
                  <path class="cls-1" d="M76.1,51.53c-.96,4.93-5.3,8.65-10.5,8.65-2.96,0-5.64-1.2-7.57-3.13-1.47-1.48-2.52-3.39-2.93-5.52h21.01Z"/>
                  <path class="cls-5" d="M97.5,51.53c-.96,4.93-5.29,8.65-10.5,8.65-2.96,0-5.64-1.2-7.57-3.13-1.47-1.48-2.52-3.39-2.93-5.52h21Z"/>
                  <path class="cls-1" d="M118.91,51.53c-.96,4.93-5.29,8.65-10.5,8.65-2.95,0-5.63-1.2-7.57-3.13-1.47-1.48-2.52-3.39-2.93-5.52h21.01Z"/>
                  <path class="cls-5" d="M140.32,51.53c-.96,4.93-5.29,8.65-10.5,8.65-2.95,0-5.63-1.2-7.57-3.13-1.47-1.48-2.52-3.39-2.93-5.52h21.01Z"/>
                  <path class="cls-1" d="M161.73,51.53c-.96,4.93-5.3,8.65-10.5,8.65-2.95,0-5.63-1.2-7.57-3.13-1.47-1.48-2.52-3.39-2.93-5.52h21.01Z"/>
                </g>
                <rect class="cls-10" x="47.29" y="42.54" width="122.49" height="8.99" rx="4.38" ry="4.38"/>
                <g>
                  <polygon class="cls-5" points="76.1 42.54 108.43 9.5 97.9 42.54 76.1 42.54"/>
                  <polygon class="cls-5" points="140.76 42.54 108.43 9.5 118.96 42.54 140.76 42.54"/>
                </g>
              </g>
            </g>
            <path class="cls-1" d="M104.05,86.25h8.97c1.76,0,3.18,1.43,3.18,3.18v2.07h-15.33v-2.07c0-1.76,1.43-3.18,3.18-3.18Z"/>
          </g>
        </g>
        <path class="cls-4" d="M187.28,127.76h0c-1.44,0-2.61-1.17-2.61-2.61v-.76c0-3.31-2.69-6-6-6h-16.5v-5.22h16.5c6.2,0,11.22,5.03,11.22,11.22v.76c0,1.44-1.17,2.61-2.61,2.61Z"/>
      </g>
      <rect class="cls-6" x="84.21" y="119.52" width="16.87" height="8.68" transform="translate(185.07 247.88) rotate(-179.9)"/>
      <rect class="cls-6" x="115.8" y="119.52" width="16.87" height="8.68" transform="translate(248.26 247.94) rotate(-179.9)"/>
    </g>
  </g>
</svg>