<?xml version="1.0" encoding="UTF-8"?>
<svg id="Layer_2" data-name="Layer 2" xmlns="http://www.w3.org/2000/svg" viewBox="0 0 220.81 197.03">
  <defs>
    <style>
      .cls-1 {
        fill: #f3e2be;
      }

      .cls-2 {
        opacity: .5;
      }

      .cls-2, .cls-3 {
        fill: #15263d;
      }

      .cls-3 {
        opacity: .2;
      }

      .cls-4 {
        fill: none;
        stroke: #fff;
        stroke-miterlimit: 10;
      }

      .cls-5 {
        fill: #d92a2a;
      }

      .cls-6 {
        fill: #eeb60b;
      }

      .cls-7 {
        fill: #3a6b97;
      }

      .cls-8 {
        fill: #fff;
      }

      .cls-9 {
        fill: #3a3b3d;
      }

      .cls-10 {
        fill: #e57a00;
      }
    </style>
  </defs>
  <g id="OBJECTS">
    <g>
      <ellipse class="cls-2" cx="107.93" cy="86.34" rx="86.31" ry="86.34"/>
      <ellipse class="cls-9" cx="110.4" cy="179.19" rx="110.4" ry="17.84"/>
      <g>
        <g>
          <polygon class="cls-5" points="195.58 175.76 25.22 175.76 45.35 95.34 47.44 87 173.37 87 175.46 95.34 195.58 175.76"/>
          <polygon class="cls-3" points="195.58 175.77 25.22 175.77 33.91 141.04 43.56 102.51 45.35 95.35 47.43 87 173.37 87 175.45 95.35 177.24 102.51 186.89 141.04 195.58 175.77"/>
          <polygon class="cls-3" points="177.24 102.51 43.56 102.51 45.35 95.35 47.43 87 173.37 87 175.45 95.35 177.24 102.51"/>
          <polygon class="cls-1" points="195.58 175.76 25.22 175.76 28.07 164.38 192.74 164.38 195.58 175.76"/>
        </g>
        <g>
          <path class="cls-1" d="M61.43,87v4.32c0,3.86-3.13,7-7,7h0c-3.86,0-7-3.13-7-7v-4.32h13.99Z"/>
          <path class="cls-5" d="M75.42,87v4.32c0,3.86-3.13,7-7,7h0c-3.86,0-7-3.13-7-7v-4.32h13.99Z"/>
          <path class="cls-1" d="M89.41,87v4.32c0,3.86-3.13,7-7,7h0c-3.86,0-7-3.13-7-7v-4.32h13.99Z"/>
          <path class="cls-5" d="M103.41,87v4.32c0,3.86-3.13,7-7,7h0c-3.86,0-7-3.13-7-7v-4.32h13.99Z"/>
          <path class="cls-1" d="M117.4,87v4.32c0,3.86-3.13,7-7,7h0c-3.86,0-7-3.13-7-7v-4.32h13.99Z"/>
          <path class="cls-5" d="M131.39,87v4.32c0,3.86-3.13,7-7,7h0c-3.86,0-7-3.13-7-7v-4.32h13.99Z"/>
          <path class="cls-1" d="M145.39,87v4.32c0,3.86-3.13,7-7,7h0c-3.86,0-7-3.13-7-7v-4.32h13.99Z"/>
          <path class="cls-5" d="M159.38,87v4.32c0,3.86-3.13,7-7,7h0c-3.86,0-7-3.13-7-7v-4.32h13.99Z"/>
          <path class="cls-1" d="M173.37,87v4.32c0,3.86-3.13,7-7,7h0c-3.86,0-7-3.13-7-7v-4.32h13.99Z"/>
        </g>
        <g>
          <polygon class="cls-5" points="47.43 87 110.4 41.42 173.37 87 47.43 87"/>
          <g>
            <polygon class="cls-8" points="47.43 87.01 61.43 87 110.4 41.42 47.43 87.01"/>
            <polygon class="cls-8" points="75.42 87 110.4 41.42 89.41 87 75.42 87"/>
            <polygon class="cls-8" points="103.41 87 110.4 41.42 117.4 87 103.41 87"/>
            <polygon class="cls-8" points="131.39 87 110.4 41.42 145.39 87 131.39 87"/>
            <polygon class="cls-8" points="159.38 87 173.37 87.01 110.4 41.42 159.38 87"/>
          </g>
        </g>
        <polygon class="cls-10" points="131.17 34.32 110.4 27.22 110.4 41.42 131.17 34.32"/>
        <polygon class="cls-6" points="125.12 25.2 110.4 20.17 110.4 30.23 125.12 25.2"/>
        <g>
          <path class="cls-5" d="M84.99,115.93l-5.55,19.01c-4.46,15.3-13.31,28.95-25.46,39.27l-1.82,1.55h37.13v-59.83h-4.31Z"/>
          <path class="cls-5" d="M135.82,115.93l5.55,19.01c4.46,15.3,13.31,28.95,25.46,39.27l1.82,1.55h-37.13v-59.83h4.31Z"/>
        </g>
        <g>
          <polygon class="cls-6" points="57.6 114.5 71.76 114.5 64.68 123 57.6 114.5"/>
          <polygon class="cls-10" points="71.51 114.5 85.67 114.5 78.59 123 71.51 114.5"/>
          <polygon class="cls-10" points="43.45 114.5 57.6 114.5 50.52 123 43.45 114.5"/>
        </g>
        <g>
          <polygon class="cls-6" points="149.3 114.5 163.45 114.5 156.38 123 149.3 114.5"/>
          <polygon class="cls-10" points="163.2 114.5 177.36 114.5 170.28 123 163.2 114.5"/>
          <polygon class="cls-10" points="135.14 114.5 149.3 114.5 142.22 123 135.14 114.5"/>
        </g>
        <line class="cls-4" x1="40.53" y1="114.61" x2="180.28" y2="114.61"/>
        <g>
          <rect class="cls-7" x="89.29" y="108.93" width="42.22" height="66.83"/>
          <path class="cls-2" d="M110.4,127.67h0c-7.02,0-12.72,5.69-12.72,12.72v35.37h25.44v-35.37c0-7.03-5.69-12.72-12.72-12.72Z"/>
          <path class="cls-1" d="M133.53,120.28h-46.24c-3.13,0-5.67-2.54-5.67-5.67h0c0-3.13,2.54-5.67,5.67-5.67h46.24c3.13,0,5.67,2.54,5.67,5.67h0c0,3.13-2.54,5.67-5.67,5.67Z"/>
        </g>
      </g>
    </g>
  </g>
</svg>