<?xml version="1.0" encoding="UTF-8"?>
<svg id="Layer_2" data-name="Layer 2" xmlns="http://www.w3.org/2000/svg" viewBox="0 0 176.91 212.99">
  <defs>
    <style>
      .cls-1 {
        fill: #f3e2be;
      }

      .cls-2 {
        opacity: .2;
      }

      .cls-2, .cls-3 {
        fill: #15263d;
      }

      .cls-4 {
        fill: #e584ae;
      }

      .cls-5 {
        fill: none;
        stroke: #fff;
        stroke-miterlimit: 10;
      }

      .cls-6, .cls-7 {
        fill: #d92a2a;
      }

      .cls-8 {
        fill: #eeb60b;
      }

      .cls-9 {
        fill: #fff;
      }

      .cls-10 {
        fill: #6fc9d2;
      }

      .cls-11 {
        fill: #3a3b3d;
      }

      .cls-12 {
        fill: #3a6b97;
      }

      .cls-12, .cls-7 {
        opacity: .5;
      }

      .cls-13 {
        fill: #e57a00;
      }

      .cls-14 {
        fill: #5ca9a9;
      }
    </style>
  </defs>
  <g id="OBJECTS">
    <g>
      <ellipse class="cls-4" cx="88.58" cy="86.34" rx="86.31" ry="86.34"/>
      <ellipse class="cls-11" cx="91.92" cy="200.69" rx="81.2" ry="12.3"/>
      <g>
        <g>
          <g>
            <path class="cls-13" d="M85.62,125.61s-9.48-2.21-18.74-8.61c-4.15-2.87-8.26-6.58-11.46-11.31-10.35-15.29-7.27-35.45-7.27-35.45,0,0,9.46,2.21,18.73,8.61,4.15,2.87,8.26,6.58,11.47,11.32,10.35,15.29,7.27,35.44,7.27,35.44Z"/>
            <path class="cls-7" d="M78.35,90.17c10.35,15.29,7.27,35.44,7.27,35.44,0,0-9.48-2.21-18.74-8.61v-38.15c4.15,2.87,8.26,6.58,11.47,11.32Z"/>
            <path class="cls-9" d="M85.93,125.32s-8.33,3.64-19.05,4.25c-5.34.31-11.28-.13-17.08-2.15-17.43-6.06-27.02-24.06-27.02-24.06,0,0,18.68-8.16,36.12-2.1,2.88,1,5.54,2.33,7.98,3.86,12.36,7.65,19.05,20.2,19.05,20.2Z"/>
            <path class="cls-1" d="M85.93,125.32s-8.33,3.64-19.05,4.25v-24.45c12.36,7.65,19.05,20.2,19.05,20.2Z"/>
          </g>
          <g>
            <path class="cls-6" d="M121.46,105.69c-3.2,4.74-7.32,8.45-11.47,11.32-9.27,6.39-18.73,8.6-18.73,8.6,0,0-3.08-20.15,7.26-35.44,3.2-4.74,7.32-8.45,11.47-11.31,9.27-6.41,18.74-8.62,18.74-8.62,0,0,3.07,20.16-7.27,35.45Z"/>
            <path class="cls-2" d="M109.99,78.86v38.15c-9.27,6.39-18.73,8.6-18.73,8.6,0,0-3.08-20.15,7.26-35.44,3.2-4.74,7.32-8.45,11.47-11.31Z"/>
            <path class="cls-9" d="M154.09,103.36s-9.58,18-27.02,24.06c-5.8,2.02-11.74,2.46-17.08,2.15-10.73-.62-19.04-4.25-19.04-4.25,0,0,6.69-12.54,19.04-20.2,2.44-1.53,5.1-2.86,7.98-3.86,17.44-6.06,36.12,2.1,36.12,2.1Z"/>
            <path class="cls-1" d="M109.99,105.12v24.45c-10.73-.62-19.04-4.25-19.04-4.25,0,0,6.69-12.54,19.04-20.2Z"/>
          </g>
        </g>
        <g>
          <path class="cls-10" d="M104.37,79.6c0,21.25-15.93,38.48-15.93,38.48,0,0-15.94-17.23-15.94-38.48s15.94-38.47,15.94-38.47c0,0,15.93,17.22,15.93,38.47Z"/>
          <path class="cls-14" d="M88.44,41.13v76.95s-15.94-17.23-15.94-38.48,15.94-38.47,15.94-38.47Z"/>
          <rect class="cls-9" x="83.61" y="75.56" width="9.66" height="9.66" transform="translate(82.75 -38.99) rotate(45)"/>
          <line class="cls-5" x1="88.44" y1="54.31" x2="88.44" y2="114.92"/>
        </g>
        <g>
          <path class="cls-8" d="M1.53,129.2c-7.23-17.56,12.92-27.15,22.56-14.22,0,0,1.67-5.55,11.26-5.97,9.6-.42,12.96,7.16,12.96,7.16l-35.48,15.68-11.29-2.66Z"/>
          <path class="cls-8" d="M175.38,129.1c7.23-17.56-12.92-27.15-22.56-14.22,0,0-1.67-5.55-11.26-5.97-9.6-.42-12.96,7.16-12.96,7.16l35.48,15.68,11.29-2.66Z"/>
          <path class="cls-6" d="M175.39,129.15c-.51,1.54-1.08,3.1-1.71,4.67-1.3,2.77-2.9,5.78-3.1,6.18-3.83,7.33-8.51,14.31-14.36,20.2-8.37,8.46-20.28,14.15-32.17,15.11-.68.05-1.36.1-2.06.11-2.75-.02-5.53-.34-8.3-.99-6.59-1.56-11.84-5.51-16.61-10.15-.63-.62-1.32-1.21-2.06-1.76,0-.01-.01-.01-.01-.01-1.94-1.44-4.19-2.51-6.55-2.63h-.02c-2.35.14-4.62,1.2-6.54,2.63h-.01c-.74.57-1.42,1.16-2.06,1.78-4.75,4.66-10.01,8.61-16.58,10.18-2.77.66-5.53.99-8.31,1.01-.69-.01-1.38-.06-2.06-.11-11.88-.95-23.8-6.61-32.19-15.06-5.83-5.88-10.52-12.86-14.37-20.19-.19-.38-1.77-3.34-3.09-6.08-.65-1.59-1.22-3.18-1.74-4.75,0-.02.02-.05.04-.06,0-.01,19.06-14.79,42.97-13.35.43.01.87.04,1.32.07.83.06,1.65.13,2.49.25,3.2.37,6.44,1.09,9.69,2.19,6.26,2.11,11.71,5.36,16.06,9.3,0,0,.08.06.23.14.31.18.63.36.95.53.02.01.05.02.07.04,3.1,1.83,7.02,2.9,10.67,3.22.51.05,1.04.08,1.54.11.29,0,.57.01.85.01h.08c.31,0,.61,0,.93-.01.5-.02,1.03-.06,1.56-.11.41-.04.83-.08,1.25-.16,2.24-.28,4.54-.86,6.64-1.74.23-.08.47-.18.69-.29.28-.12.57-.26.84-.41.13-.06.26-.12.38-.19.3-.16.61-.32.91-.5h.01c.31-.17.62-.34.93-.51.16-.1.24-.16.24-.16,4.35-3.94,9.78-7.21,16.04-9.33,3.23-1.1,6.49-1.82,9.67-2.19.84-.12,1.68-.2,2.51-.28.43-.02.86-.05,1.29-.06,23.91-1.47,42.98,13.28,42.99,13.29.02.01.04.04.04.06Z"/>
          <path class="cls-2" d="M88.44,131.72v28.14c-2.35.14-4.62,1.2-6.54,2.63h-.01c-.74.57-1.42,1.16-2.06,1.78-4.75,4.66-10.01,8.61-16.58,10.18-2.77.66-5.53.99-8.31,1.01-.69-.01-1.38-.06-2.06-.11-11.88-.95-23.8-6.61-32.19-15.06-5.83-5.88-10.52-12.86-14.37-20.19-.19-.38-1.77-3.34-3.09-6.08-.65-1.59-1.22-3.18-1.74-4.75,0-.02.02-.05.04-.06,0-.01,19.06-14.79,42.97-13.35.43.01.87.04,1.32.07.83.06,1.65.13,2.49.25,3.2.37,6.44,1.09,9.69,2.19,6.26,2.11,11.71,5.36,16.06,9.3,0,0,.08.06.23.14.31.18.63.36.95.53.02.01.05.02.07.04,3.1,1.83,7.02,2.9,10.67,3.22.51.05,1.04.08,1.54.11.29,0,.57.01.85.01h.08Z"/>
          <g>
            <path class="cls-3" d="M71.8,154.51c-2.72,6.88-10.86,13.11-23.49,10.4-1.82-.39-3.74-.96-5.74-1.75-15.66-6.18-21.82-27.86-22-28.55h0s13.89-8.58,27.76-7.59c2.64.18,5.27.71,7.8,1.7,15.9,6.25,18.79,17.89,15.69,25.78Z"/>
            <path class="cls-3" d="M105.11,153.84c3.13,7.88,13.35,14.89,29.25,8.61,15.65-6.19,21.79-27.89,21.97-28.57h.01s-19.69-12.12-35.57-5.84c-15.89,6.28-18.77,17.91-15.66,25.8Z"/>
          </g>
          <path class="cls-12" d="M48.32,127.02v37.89c-1.82-.39-3.74-.96-5.74-1.75-15.66-6.18-21.82-27.86-22-28.55h0s13.89-8.58,27.76-7.59Z"/>
          <path class="cls-12" d="M128.6,126.31v37.89c1.82-.39,3.74-.96,5.74-1.75,15.66-6.18,21.82-27.86,22-28.55h0s-13.89-8.58-27.76-7.59Z"/>
          <path class="cls-8" d="M100.77,121.14l-3.19-1.74c-.97-.53-1.77-1.33-2.31-2.31l-1.74-3.19c-2.2-4.02-7.98-4.02-10.18,0l-1.74,3.19c-.53.97-1.33,1.77-2.31,2.31l-3.19,1.74c-4.02,2.2-4.02,7.98,0,10.18l3.19,1.74c.97.53,1.77,1.33,2.31,2.31l1.74,3.19c2.2,4.02,7.98,4.02,10.18,0l1.74-3.19c.53-.97,1.33-1.77,2.31-2.31l3.19-1.74c4.02-2.2,4.02-7.98,0-10.18Z"/>
        </g>
        <rect class="cls-9" x="83.61" y="122.01" width="9.66" height="9.66" transform="translate(115.6 -25.38) rotate(45)"/>
        <g>
          <rect class="cls-9" x="83.61" y="158.05" width="9.66" height="9.66" transform="translate(141.08 -14.83) rotate(45)"/>
          <line class="cls-5" x1="88.44" y1="162.88" x2="88.44" y2="126.84"/>
        </g>
        <g>
          <circle class="cls-9" cx="163.54" cy="122.38" r="4.3"/>
          <path class="cls-9" d="M145.23,117.34c0,2.38-1.93,4.3-4.3,4.3s-4.3-1.93-4.3-4.3,1.93-4.3,4.3-4.3,4.3,1.93,4.3,4.3Z"/>
        </g>
        <g>
          <path class="cls-9" d="M8.55,122.38c0,2.38,1.93,4.3,4.3,4.3s4.3-1.93,4.3-4.3-1.93-4.3-4.3-4.3-4.3,1.93-4.3,4.3Z"/>
          <path class="cls-9" d="M31.16,117.34c0,2.38,1.93,4.3,4.3,4.3s4.3-1.93,4.3-4.3-1.93-4.3-4.3-4.3-4.3,1.93-4.3,4.3Z"/>
        </g>
      </g>
    </g>
  </g>
</svg>