<?xml version="1.0" encoding="UTF-8"?>
<svg id="Layer_2" data-name="Layer 2" xmlns="http://www.w3.org/2000/svg" viewBox="0 0 172.83 206.6">
  <defs>
    <style>
      .cls-1 {
        opacity: .5;
      }

      .cls-1, .cls-2 {
        fill: #15263d;
      }

      .cls-2 {
        opacity: .2;
      }

      .cls-3 {
        fill: #9e2529;
      }

      .cls-4 {
        fill: #d92a2a;
      }

      .cls-5 {
        fill: #eeb60b;
      }

      .cls-6 {
        fill: #3a6b97;
      }

      .cls-7 {
        fill: #fff;
      }

      .cls-8 {
        fill: #6fc9d2;
      }

      .cls-9 {
        fill: #3a3b3d;
      }

      .cls-10 {
        fill: #e57a00;
      }
    </style>
  </defs>
  <g id="OBJECTS">
    <g>
      <ellipse class="cls-1" cx="86.52" cy="86.34" rx="86.31" ry="86.34"/>
      <ellipse class="cls-9" cx="87.3" cy="194.29" rx="81.2" ry="12.3"/>
      <g>
        <g>
          <rect class="cls-6" x="120.59" y="60.74" width="11.36" height="87.59" transform="translate(252.35 209.3) rotate(-179.9)"/>
          <rect class="cls-6" x="99.24" y="60.7" width="11.36" height="87.59" transform="translate(209.64 209.18) rotate(-179.89)"/>
          <rect class="cls-6" x="77.89" y="60.66" width="11.36" height="87.59" transform="translate(166.94 209.07) rotate(-179.9)"/>
          <rect class="cls-5" x="117.88" y="52.07" width="16.87" height="8.68" transform="translate(252.53 113.04) rotate(-179.9)"/>
          <rect class="cls-5" x="96.57" y="52.03" width="16.87" height="8.68" transform="translate(209.91 112.92) rotate(-179.89)"/>
          <rect class="cls-5" x="75.21" y="51.99" width="16.87" height="8.68" transform="translate(167.2 112.8) rotate(-179.9)"/>
        </g>
        <path class="cls-5" d="M61.17,95.82h0c.15-.03.28-.06.42-.08,11.19-2.12,22.54-3.18,33.93-3.16l61.47.11v-8.4s.03-11.12.03-11.12l-61.58-.11c-11.38-.02-22.72-1.12-33.89-3.28l-.33-.06h0l-.03,14.57-.02,11.53Z"/>
        <path class="cls-10" d="M61.18,95.82c.15-.03.28-.06.42-.08,11.19-2.12,22.54-3.18,33.93-3.16l50.71.09.02-8.38H61.2l-.02,11.53Z"/>
        <polygon class="cls-4" points="146.24 92.67 146.24 92.68 156.89 92.7 156.89 92.69 156.9 84.29 156.92 73.18 146.28 73.16 146.26 84.29 146.24 92.67"/>
        <polygon class="cls-2" points="146.24 92.67 156.89 92.69 157 92.69 157.01 84.29 146.26 84.29 146.24 92.67"/>
        <path class="cls-4" d="M10.22,113.49c16.07-8.39,33.24-14.33,50.95-17.67h0l.02-11.53.03-14.57h0c-17.7-3.43-34.86-9.43-50.9-17.87l-.06,32.44-.05,29.2Z"/>
        <path class="cls-2" d="M10.22,113.49c16.07-8.39,33.24-14.33,50.95-17.67h0l.02-11.53H10.27l-.05,29.2Z"/>
        <path class="cls-3" d="M5.26,124.88h.42c2.91,0,5.27-2.35,5.28-5.26l.13-73.89c0-2.91-2.35-5.27-5.26-5.28h-.42c-2.91,0-5.27,2.35-5.28,5.26L0,119.6c0,2.91,2.35,5.27,5.26,5.28Z"/>
        <path class="cls-3" d="M162.36,98.82h0c3.03,0,5.48-2.44,5.49-5.47l.04-20.77c0-3.03-2.44-5.48-5.47-5.49h0c-3.03,0-5.48,2.44-5.49,5.47l-.04,20.77c0,3.03,2.44,5.48,5.47,5.49Z"/>
        <path class="cls-8" d="M55.32,118.19c.03-18.72,15.29-33.93,34.02-33.89l31.33.06c18.72.03,33.93,15.29,33.89,34.02-.03,18.72-15.29,33.93-34.02,33.89l-31.33-.06c-18.72-.03-33.93-15.29-33.89-34.01ZM89.32,95.31c-12.65-.02-22.96,10.25-22.98,22.9-.02,12.65,10.25,22.96,22.9,22.98l31.33.06c12.65.02,22.96-10.25,22.98-22.9.02-12.65-10.25-22.96-22.9-22.98l-31.33-.06Z"/>
        <polygon class="cls-7" points="89.33 84.29 89.33 128.78 104.94 117.89 120.55 128.78 120.55 84.29 89.33 84.29"/>
      </g>
      <rect class="cls-5" x="96.34" y="94.91" width="16.87" height="8.68" transform="translate(209.37 198.69) rotate(-179.9)"/>
    </g>
  </g>
</svg>